<svg xmlns="http://www.w3.org/2000/svg" xmlns:xlink="http://www.w3.org/1999/xlink" viewBox="0 0 430 430" width="430" height="430" preserveAspectRatio="xMidYMid meet" style="width: 100%; height: 100%; transform: translate3d(0px, 0px, 0px); content-visibility: visible;"><defs><clipPath id="__lottie_element_2484"><rect width="430" height="430" x="0" y="0"/></clipPath><clipPath id="__lottie_element_2486"><path d="M0,0 L430,0 L430,430 L0,430z"/></clipPath><clipPath id="__lottie_element_2491"><path d="M0,0 L430,0 L430,430 L0,430z"/></clipPath><clipPath id="__lottie_element_2495"><path d="M0,0 L430,0 L430,430 L0,430z"/></clipPath><g id="__lottie_element_2498"><g clip-path="url(#__lottie_element_2499)" transform="matrix(1,0,0,1,0,0)" opacity="1" style="display: block;"><g transform="matrix(0.7071067690849304,-0.7071067690849304,0.7071067690849304,0.7071067690849304,211.443603515625,204.69808959960938)" opacity="1" style="display: none;"><g opacity="1" transform="matrix(1,0,0,1,0,0)"><path class="secondary" fill="rgb(47,232,72)" fill-opacity="1" d=" M-59.035728454589844,21.799163818359375 C-59.035728454589844,21.799163818359375 112.91603088378906,21.010873794555664 112.91603088378906,21.010873794555664 C112.91603088378906,21.010873794555664 112.91603088378906,23.955272674560547 112.91603088378906,23.955272674560547 C112.91603088378906,23.955272674560547 144.3329315185547,23.955272674560547 144.3329315185547,23.955272674560547 C144.3329315185547,23.955272674560547 144.3329315185547,22.12563705444336 144.3329315185547,22.12563705444336 C144.3329315185547,22.12563705444336 175.7499237060547,22.12563705444336 175.7499237060547,22.12563705444336 C175.7499237060547,22.12563705444336 175.7499237060547,23.955272674560547 175.7499237060547,23.955272674560547 C175.7499237060547,23.955272674560547 207.16603088378906,23.955272674560547 207.16603088378906,23.955272674560547 C207.16603088378906,23.955272674560547 207.16603088378906,21.010873794555664 207.16603088378906,21.010873794555664 C207.16603088378906,21.010873794555664 220.1360321044922,21.003578186035156 220.1360321044922,21.003578186035156 C226.27102661132812,21.003578186035156 231.1306915283203,16.929262161254883 231.1306915283203,10.794262886047363 C231.1306915283203,10.794262886047363 231.24392700195312,5.666447639465332 231.24392700195312,5.666447639465332 C231.24392700195312,-0.46855229139328003 226.27012634277344,-5.44155216217041 220.1360321044922,-5.44155216217041 C220.1360321044922,-5.44155216217041 -59.035728454589844,-4.645069122314453 -59.035728454589844,-4.645069122314453"/></g></g><g transform="matrix(0.7071067690849304,-0.7071067690849304,0.7071067690849304,0.7071067690849304,211.443603515625,204.69808959960938)" opacity="1" style="display: block;"><g opacity="1" transform="matrix(1,0,0,1,0,0)"><path class="secondary" fill="rgb(47,232,72)" fill-opacity="1" d=" M-35.37099838256836,25.871999740600586 C-35.37099838256836,25.871999740600586 112.8010025024414,25.569000244140625 112.8010025024414,25.569000244140625 C112.8010025024414,25.569000244140625 112.8010025024414,54.604000091552734 112.8010025024414,54.604000091552734 C112.8010025024414,54.604000091552734 144.2169952392578,54.604000091552734 144.2169952392578,54.604000091552734 C144.2169952392578,54.604000091552734 144.2169952392578,36.5629997253418 144.2169952392578,36.5629997253418 C144.2169952392578,36.5629997253418 175.63400268554688,36.5629997253418 175.63400268554688,36.5629997253418 C175.63400268554688,36.5629997253418 175.63400268554688,54.604000091552734 175.63400268554688,54.604000091552734 C175.63400268554688,54.604000091552734 207.05099487304688,54.604000091552734 207.05099487304688,54.604000091552734 C207.05099487304688,54.604000091552734 207.05099487304688,25.569000244140625 207.05099487304688,25.569000244140625 C207.05099487304688,25.569000244140625 220.02099609375,25.496999740600586 220.02099609375,25.496999740600586 C226.156005859375,25.496999740600586 231.1280059814453,20.52400016784668 231.1280059814453,14.388999938964844 C231.1280059814453,14.388999938964844 231.1280059814453,-0.17499999701976776 231.1280059814453,-0.17499999701976776 C231.1280059814453,-6.309999942779541 226.156005859375,-11.282999992370605 220.02099609375,-11.282999992370605 C220.02099609375,-11.282999992370605 -35.37099838256836,-10.907999992370605 -35.37099838256836,-10.907999992370605"/></g></g><g transform="matrix(0.7071067690849304,-0.7071067690849304,-0.7071067690849304,-0.7071067690849304,221.54391479492188,216.44540405273438)" opacity="1" style="display: none;"><g opacity="1" transform="matrix(1,0,0,1,0,0)"><path class="secondary" fill="rgb(47,232,72)" fill-opacity="1" d=" M-61.28411102294922,21.343650817871094 C-61.28411102294922,21.343650817871094 112.92889404296875,20.50108528137207 112.92889404296875,20.50108528137207 C112.92889404296875,20.50108528137207 112.92889404296875,20.5274715423584 112.92889404296875,20.5274715423584 C112.92889404296875,20.5274715423584 144.3459014892578,20.5274715423584 144.3459014892578,20.5274715423584 C144.3459014892578,20.5274715423584 144.3459014892578,20.510940551757812 144.3459014892578,20.510940551757812 C144.3459014892578,20.510940551757812 175.7628936767578,20.510940551757812 175.7628936767578,20.510940551757812 C175.7628936767578,20.510940551757812 175.7628936767578,20.5274715423584 175.7628936767578,20.5274715423584 C175.7628936767578,20.5274715423584 207.17889404296875,20.5274715423584 207.17889404296875,20.5274715423584 C207.17889404296875,20.5274715423584 207.17889404296875,20.50108528137207 207.17889404296875,20.50108528137207 C207.17889404296875,20.50108528137207 220.14889526367188,20.501028060913086 220.14889526367188,20.501028060913086 C226.2838897705078,20.501028060913086 231.13099670410156,16.5272216796875 231.13099670410156,10.39222240447998 C231.13099670410156,10.39222240447998 231.25689697265625,6.319764137268066 231.25689697265625,6.319764137268066 C231.25689697265625,0.18476422131061554 226.28289794921875,-4.788235664367676 220.14889526367188,-4.788235664367676 C220.14889526367188,-4.788235664367676 -61.28411102294922,-3.944613456726074 -61.28411102294922,-3.944613456726074"/></g></g></g></g><clipPath id="__lottie_element_2499"><path d="M0,0 L430,0 L430,430 L0,430z"/></clipPath><clipPath id="__lottie_element_2509"><path d="M0,0 L430,0 L430,430 L0,430z"/></clipPath><clipPath id="__lottie_element_2513"><path d="M0,0 L430,0 L430,430 L0,430z"/></clipPath><g id="__lottie_element_2516"><g clip-path="url(#__lottie_element_2517)" transform="matrix(1,0,0,1,0,0)" opacity="1" style="display: block;"><g transform="matrix(0.7071067690849304,-0.7071067690849304,0.7071067690849304,0.7071067690849304,211.443603515625,204.69808959960938)" opacity="1" style="display: none;"><g opacity="1" transform="matrix(1,0,0,1,0,0)"><path class="secondary" fill="rgb(47,232,72)" fill-opacity="1" d=" M-68.97683715820312,-3.642312526702881 C-68.97683715820312,0.7070418000221252 -102.9859390258789,4.231873989105225 -144.93893432617188,4.231873989105225 C-186.89193725585938,4.231873989105225 -220.90184020996094,0.7070418000221252 -220.90184020996094,-3.642312526702881 C-220.90184020996094,-7.991666793823242 -186.89193725585938,-11.51729679107666 -144.93893432617188,-11.51729679107666 C-102.9859390258789,-11.51729679107666 -68.97683715820312,-7.991666793823242 -68.97683715820312,-3.642312526702881z M-99.69593811035156,-3.6422111988067627 C-99.69593811035156,-6.232202053070068 -119.95193481445312,-8.333084106445312 -144.93893432617188,-8.333084106445312 C-169.92593383789062,-8.333084106445312 -190.1819305419922,-6.232303142547607 -190.1819305419922,-3.642312526702881 C-190.1819305419922,-1.0523217916488647 -169.92593383789062,1.047661304473877 -144.93893432617188,1.047661304473877 C-119.95193481445312,1.047661304473877 -99.69593811035156,-1.0522204637527466 -99.69593811035156,-3.6422111988067627z"/></g></g><g transform="matrix(0.7071067690849304,-0.7071067690849304,0.7071067690849304,0.7071067690849304,211.443603515625,204.69808959960938)" opacity="1" style="display: block;"><g opacity="1" transform="matrix(1,0,0,1,0,0)"><path class="secondary" fill="rgb(47,232,72)" fill-opacity="1" d=" M-69.00199890136719,7.142000198364258 C-69.00199890136719,-34.59199905395508 -103.01200103759766,-68.42500305175781 -144.96499633789062,-68.42500305175781 C-186.91799926757812,-68.42500305175781 -220.927001953125,-34.59199905395508 -220.927001953125,7.142000198364258 C-220.927001953125,48.875999450683594 -186.91799926757812,82.70800018310547 -144.96499633789062,82.70800018310547 C-103.01200103759766,82.70800018310547 -69.00199890136719,48.875999450683594 -69.00199890136719,7.142000198364258z M-99.72200012207031,7.142000198364258 C-99.72200012207031,31.999000549316406 -119.97799682617188,52.14799880981445 -144.96499633789062,52.14799880981445 C-169.95199584960938,52.14799880981445 -190.20799255371094,31.999000549316406 -190.20799255371094,7.142000198364258 C-190.20799255371094,-17.71500015258789 -169.95199584960938,-37.8650016784668 -144.96499633789062,-37.8650016784668 C-119.97799682617188,-37.8650016784668 -99.72200012207031,-17.71500015258789 -99.72200012207031,7.142000198364258z"/></g></g><g transform="matrix(0.7071067690849304,-0.7071067690849304,-0.7071067690849304,-0.7071067690849304,221.54391479492188,216.44540405273438)" opacity="1" style="display: none;"><g opacity="1" transform="matrix(1,0,0,1,0,0)"><path class="secondary" fill="rgb(47,232,72)" fill-opacity="1" d=" M-68.87310028076172,20.131528854370117 C-68.87310028076172,20.207822799682617 -102.8821029663086,20.26849937438965 -144.83509826660156,20.26849937438965 C-186.78810119628906,20.26849937438965 -220.79811096191406,20.207822799682617 -220.79811096191406,20.131528854370117 C-220.79811096191406,20.055234909057617 -186.78810119628906,19.99355697631836 -144.83509826660156,19.99355697631836 C-102.8821029663086,19.99355697631836 -68.87310028076172,20.055234909057617 -68.87310028076172,20.131528854370117z M-99.59210205078125,20.131528854370117 C-99.59210205078125,20.08660316467285 -119.84810638427734,20.048877716064453 -144.83509826660156,20.048877716064453 C-169.8220977783203,20.048877716064453 -190.0791015625,20.08660316467285 -190.0791015625,20.131528854370117 C-190.0791015625,20.176454544067383 -169.8220977783203,20.213180541992188 -144.83509826660156,20.213180541992188 C-119.84810638427734,20.213180541992188 -99.59210205078125,20.176454544067383 -99.59210205078125,20.131528854370117z"/></g></g></g></g><clipPath id="__lottie_element_2517"><path d="M0,0 L430,0 L430,430 L0,430z"/></clipPath><clipPath id="__lottie_element_2521"><path d="M0,0 L430,0 L430,430 L0,430z"/></clipPath><mask id="__lottie_element_2516_1" mask-type="alpha"><use xmlns:ns1="http://www.w3.org/1999/xlink" ns1:href="#__lottie_element_2516"/></mask><mask id="__lottie_element_2498_1" mask-type="alpha"><use xmlns:ns2="http://www.w3.org/1999/xlink" ns2:href="#__lottie_element_2498"/></mask></defs><g clip-path="url(#__lottie_element_2484)"><g clip-path="url(#__lottie_element_2486)" transform="matrix(1,0,0,1,0,0)" opacity="1" style="display: block;"><g clip-path="url(#__lottie_element_2491)" transform="matrix(1,0,0,1,0,0)" opacity="1" style="display: block;"><g transform="matrix(0.7071067690849304,-0.7071067690849304,0.7071067690849304,0.7071067690849304,211.443603515625,204.69808959960938)" opacity="1" style="display: none;"><g opacity="1" transform="matrix(1,0,0,1,0,0)"><path class="secondary" fill="rgb(47,232,72)" fill-opacity="1" d=" M-59.035728454589844,21.799163818359375 C-59.035728454589844,21.799163818359375 112.91603088378906,21.010873794555664 112.91603088378906,21.010873794555664 C112.91603088378906,21.010873794555664 112.91603088378906,23.955272674560547 112.91603088378906,23.955272674560547 C112.91603088378906,23.955272674560547 144.3329315185547,23.955272674560547 144.3329315185547,23.955272674560547 C144.3329315185547,23.955272674560547 144.3329315185547,22.12563705444336 144.3329315185547,22.12563705444336 C144.3329315185547,22.12563705444336 175.7499237060547,22.12563705444336 175.7499237060547,22.12563705444336 C175.7499237060547,22.12563705444336 175.7499237060547,23.955272674560547 175.7499237060547,23.955272674560547 C175.7499237060547,23.955272674560547 207.16603088378906,23.955272674560547 207.16603088378906,23.955272674560547 C207.16603088378906,23.955272674560547 207.16603088378906,21.010873794555664 207.16603088378906,21.010873794555664 C207.16603088378906,21.010873794555664 220.1360321044922,21.003578186035156 220.1360321044922,21.003578186035156 C226.27102661132812,21.003578186035156 231.1306915283203,16.929262161254883 231.1306915283203,10.794262886047363 C231.1306915283203,10.794262886047363 231.24392700195312,5.666447639465332 231.24392700195312,5.666447639465332 C231.24392700195312,-0.46855229139328003 226.27012634277344,-5.44155216217041 220.1360321044922,-5.44155216217041 C220.1360321044922,-5.44155216217041 -59.035728454589844,-4.645069122314453 -59.035728454589844,-4.645069122314453"/></g></g><g transform="matrix(0.7071067690849304,-0.7071067690849304,0.7071067690849304,0.7071067690849304,211.443603515625,204.69808959960938)" opacity="0.5" style="mix-blend-mode: multiply; display: none;"><g opacity="1" transform="matrix(1,0,0,1,0,0)"><path class="secondary" fill="rgb(47,232,72)" fill-opacity="1" d=" M-59.035728454589844,21.799163818359375 C-59.035728454589844,21.799163818359375 112.91603088378906,21.010873794555664 112.91603088378906,21.010873794555664 C112.91603088378906,21.010873794555664 112.91603088378906,23.955272674560547 112.91603088378906,23.955272674560547 C112.91603088378906,23.955272674560547 144.3329315185547,23.955272674560547 144.3329315185547,23.955272674560547 C144.3329315185547,23.955272674560547 144.3329315185547,22.12563705444336 144.3329315185547,22.12563705444336 C144.3329315185547,22.12563705444336 175.7499237060547,22.12563705444336 175.7499237060547,22.12563705444336 C175.7499237060547,22.12563705444336 175.7499237060547,23.955272674560547 175.7499237060547,23.955272674560547 C175.7499237060547,23.955272674560547 207.16603088378906,23.955272674560547 207.16603088378906,23.955272674560547 C207.16603088378906,23.955272674560547 207.16603088378906,21.010873794555664 207.16603088378906,21.010873794555664 C207.16603088378906,21.010873794555664 220.1360321044922,21.003578186035156 220.1360321044922,21.003578186035156 C226.27102661132812,21.003578186035156 231.1306915283203,16.929262161254883 231.1306915283203,10.794262886047363 C231.1306915283203,10.794262886047363 231.24392700195312,5.666447639465332 231.24392700195312,5.666447639465332 C231.24392700195312,-0.46855229139328003 226.27012634277344,-5.44155216217041 220.1360321044922,-5.44155216217041 C220.1360321044922,-5.44155216217041 -59.035728454589844,-4.645069122314453 -59.035728454589844,-4.645069122314453"/></g></g><g transform="matrix(0.7071067690849304,-0.7071067690849304,0.7071067690849304,0.7071067690849304,211.443603515625,204.69808959960938)" opacity="1" style="display: block;"><g opacity="1" transform="matrix(1,0,0,1,0,0)"><path class="secondary" fill="rgb(47,232,72)" fill-opacity="1" d=" M-35.37099838256836,25.871999740600586 C-35.37099838256836,25.871999740600586 112.8010025024414,25.569000244140625 112.8010025024414,25.569000244140625 C112.8010025024414,25.569000244140625 112.8010025024414,54.604000091552734 112.8010025024414,54.604000091552734 C112.8010025024414,54.604000091552734 144.2169952392578,54.604000091552734 144.2169952392578,54.604000091552734 C144.2169952392578,54.604000091552734 144.2169952392578,36.5629997253418 144.2169952392578,36.5629997253418 C144.2169952392578,36.5629997253418 175.63400268554688,36.5629997253418 175.63400268554688,36.5629997253418 C175.63400268554688,36.5629997253418 175.63400268554688,54.604000091552734 175.63400268554688,54.604000091552734 C175.63400268554688,54.604000091552734 207.05099487304688,54.604000091552734 207.05099487304688,54.604000091552734 C207.05099487304688,54.604000091552734 207.05099487304688,25.569000244140625 207.05099487304688,25.569000244140625 C207.05099487304688,25.569000244140625 220.02099609375,25.496999740600586 220.02099609375,25.496999740600586 C226.156005859375,25.496999740600586 231.1280059814453,20.52400016784668 231.1280059814453,14.388999938964844 C231.1280059814453,14.388999938964844 231.1280059814453,-0.17499999701976776 231.1280059814453,-0.17499999701976776 C231.1280059814453,-6.309999942779541 226.156005859375,-11.282999992370605 220.02099609375,-11.282999992370605 C220.02099609375,-11.282999992370605 -35.37099838256836,-10.907999992370605 -35.37099838256836,-10.907999992370605"/></g></g><g transform="matrix(0.7071067690849304,-0.7071067690849304,0.7071067690849304,0.7071067690849304,211.443603515625,204.69808959960938)" opacity="0.5" style="mix-blend-mode: multiply; display: block;"><g opacity="1" transform="matrix(1,0,0,1,0,0)"><path class="secondary" fill="rgb(47,232,72)" fill-opacity="1" d=" M-35.37099838256836,25.871999740600586 C-35.37099838256836,25.871999740600586 112.8010025024414,25.569000244140625 112.8010025024414,25.569000244140625 C112.8010025024414,25.569000244140625 112.8010025024414,54.604000091552734 112.8010025024414,54.604000091552734 C112.8010025024414,54.604000091552734 144.2169952392578,54.604000091552734 144.2169952392578,54.604000091552734 C144.2169952392578,54.604000091552734 144.2169952392578,36.5629997253418 144.2169952392578,36.5629997253418 C144.2169952392578,36.5629997253418 175.63400268554688,36.5629997253418 175.63400268554688,36.5629997253418 C175.63400268554688,36.5629997253418 175.63400268554688,54.604000091552734 175.63400268554688,54.604000091552734 C175.63400268554688,54.604000091552734 207.05099487304688,54.604000091552734 207.05099487304688,54.604000091552734 C207.05099487304688,54.604000091552734 207.05099487304688,25.569000244140625 207.05099487304688,25.569000244140625 C207.05099487304688,25.569000244140625 220.02099609375,25.496999740600586 220.02099609375,25.496999740600586 C226.156005859375,25.496999740600586 231.1280059814453,20.52400016784668 231.1280059814453,14.388999938964844 C231.1280059814453,14.388999938964844 231.1280059814453,-0.17499999701976776 231.1280059814453,-0.17499999701976776 C231.1280059814453,-6.309999942779541 226.156005859375,-11.282999992370605 220.02099609375,-11.282999992370605 C220.02099609375,-11.282999992370605 -35.37099838256836,-10.907999992370605 -35.37099838256836,-10.907999992370605"/></g></g><g transform="matrix(0.7071067690849304,-0.7071067690849304,-0.7071067690849304,-0.7071067690849304,221.54391479492188,216.44540405273438)" opacity="1" style="display: none;"><g opacity="1" transform="matrix(1,0,0,1,0,0)"><path class="secondary" fill="rgb(47,232,72)" fill-opacity="1" d=" M-61.28411102294922,21.343650817871094 C-61.28411102294922,21.343650817871094 112.92889404296875,20.50108528137207 112.92889404296875,20.50108528137207 C112.92889404296875,20.50108528137207 112.92889404296875,20.5274715423584 112.92889404296875,20.5274715423584 C112.92889404296875,20.5274715423584 144.3459014892578,20.5274715423584 144.3459014892578,20.5274715423584 C144.3459014892578,20.5274715423584 144.3459014892578,20.510940551757812 144.3459014892578,20.510940551757812 C144.3459014892578,20.510940551757812 175.7628936767578,20.510940551757812 175.7628936767578,20.510940551757812 C175.7628936767578,20.510940551757812 175.7628936767578,20.5274715423584 175.7628936767578,20.5274715423584 C175.7628936767578,20.5274715423584 207.17889404296875,20.5274715423584 207.17889404296875,20.5274715423584 C207.17889404296875,20.5274715423584 207.17889404296875,20.50108528137207 207.17889404296875,20.50108528137207 C207.17889404296875,20.50108528137207 220.14889526367188,20.501028060913086 220.14889526367188,20.501028060913086 C226.2838897705078,20.501028060913086 231.13099670410156,16.5272216796875 231.13099670410156,10.39222240447998 C231.13099670410156,10.39222240447998 231.25689697265625,6.319764137268066 231.25689697265625,6.319764137268066 C231.25689697265625,0.18476422131061554 226.28289794921875,-4.788235664367676 220.14889526367188,-4.788235664367676 C220.14889526367188,-4.788235664367676 -61.28411102294922,-3.944613456726074 -61.28411102294922,-3.944613456726074"/></g></g><g transform="matrix(0.7071067690849304,-0.7071067690849304,-0.7071067690849304,-0.7071067690849304,221.54391479492188,216.44540405273438)" opacity="0.5" style="mix-blend-mode: multiply; display: none;"><g opacity="1" transform="matrix(1,0,0,1,0,0)"><path class="secondary" fill="rgb(47,232,72)" fill-opacity="1" d=" M-61.28411102294922,21.343650817871094 C-61.28411102294922,21.343650817871094 112.92889404296875,20.50108528137207 112.92889404296875,20.50108528137207 C112.92889404296875,20.50108528137207 112.92889404296875,20.5274715423584 112.92889404296875,20.5274715423584 C112.92889404296875,20.5274715423584 144.3459014892578,20.5274715423584 144.3459014892578,20.5274715423584 C144.3459014892578,20.5274715423584 144.3459014892578,20.510940551757812 144.3459014892578,20.510940551757812 C144.3459014892578,20.510940551757812 175.7628936767578,20.510940551757812 175.7628936767578,20.510940551757812 C175.7628936767578,20.510940551757812 175.7628936767578,20.5274715423584 175.7628936767578,20.5274715423584 C175.7628936767578,20.5274715423584 207.17889404296875,20.5274715423584 207.17889404296875,20.5274715423584 C207.17889404296875,20.5274715423584 207.17889404296875,20.50108528137207 207.17889404296875,20.50108528137207 C207.17889404296875,20.50108528137207 220.14889526367188,20.501028060913086 220.14889526367188,20.501028060913086 C226.2838897705078,20.501028060913086 231.13099670410156,16.5272216796875 231.13099670410156,10.39222240447998 C231.13099670410156,10.39222240447998 231.25689697265625,6.319764137268066 231.25689697265625,6.319764137268066 C231.25689697265625,0.18476422131061554 226.28289794921875,-4.788235664367676 220.14889526367188,-4.788235664367676 C220.14889526367188,-4.788235664367676 -61.28411102294922,-3.944613456726074 -61.28411102294922,-3.944613456726074"/></g></g></g><g mask="url(#__lottie_element_2498_1)" style="display: block;"><g clip-path="url(#__lottie_element_2495)" transform="matrix(1,0,0,1,7,7)" opacity="1"><g transform="matrix(0.7071067690849304,-0.7071067690849304,0.7071067690849304,0.7071067690849304,211.443603515625,204.69808959960938)" opacity="1" style="display: none;"><g opacity="1" transform="matrix(1,0,0,1,0,0)"><path class="secondary" fill="rgb(47,232,72)" fill-opacity="1" d=" M-59.035728454589844,21.799163818359375 C-59.035728454589844,21.799163818359375 112.91603088378906,21.010873794555664 112.91603088378906,21.010873794555664 C112.91603088378906,21.010873794555664 112.91603088378906,23.955272674560547 112.91603088378906,23.955272674560547 C112.91603088378906,23.955272674560547 144.3329315185547,23.955272674560547 144.3329315185547,23.955272674560547 C144.3329315185547,23.955272674560547 144.3329315185547,22.12563705444336 144.3329315185547,22.12563705444336 C144.3329315185547,22.12563705444336 175.7499237060547,22.12563705444336 175.7499237060547,22.12563705444336 C175.7499237060547,22.12563705444336 175.7499237060547,23.955272674560547 175.7499237060547,23.955272674560547 C175.7499237060547,23.955272674560547 207.16603088378906,23.955272674560547 207.16603088378906,23.955272674560547 C207.16603088378906,23.955272674560547 207.16603088378906,21.010873794555664 207.16603088378906,21.010873794555664 C207.16603088378906,21.010873794555664 220.1360321044922,21.003578186035156 220.1360321044922,21.003578186035156 C226.27102661132812,21.003578186035156 231.1306915283203,16.929262161254883 231.1306915283203,10.794262886047363 C231.1306915283203,10.794262886047363 231.24392700195312,5.666447639465332 231.24392700195312,5.666447639465332 C231.24392700195312,-0.46855229139328003 226.27012634277344,-5.44155216217041 220.1360321044922,-5.44155216217041 C220.1360321044922,-5.44155216217041 -59.035728454589844,-4.645069122314453 -59.035728454589844,-4.645069122314453"/></g></g><g transform="matrix(0.7071067690849304,-0.7071067690849304,0.7071067690849304,0.7071067690849304,211.443603515625,204.69808959960938)" opacity="1" style="display: block;"><g opacity="1" transform="matrix(1,0,0,1,0,0)"><path class="secondary" fill="rgb(47,232,72)" fill-opacity="1" d=" M-35.37099838256836,25.871999740600586 C-35.37099838256836,25.871999740600586 112.8010025024414,25.569000244140625 112.8010025024414,25.569000244140625 C112.8010025024414,25.569000244140625 112.8010025024414,54.604000091552734 112.8010025024414,54.604000091552734 C112.8010025024414,54.604000091552734 144.2169952392578,54.604000091552734 144.2169952392578,54.604000091552734 C144.2169952392578,54.604000091552734 144.2169952392578,36.5629997253418 144.2169952392578,36.5629997253418 C144.2169952392578,36.5629997253418 175.63400268554688,36.5629997253418 175.63400268554688,36.5629997253418 C175.63400268554688,36.5629997253418 175.63400268554688,54.604000091552734 175.63400268554688,54.604000091552734 C175.63400268554688,54.604000091552734 207.05099487304688,54.604000091552734 207.05099487304688,54.604000091552734 C207.05099487304688,54.604000091552734 207.05099487304688,25.569000244140625 207.05099487304688,25.569000244140625 C207.05099487304688,25.569000244140625 220.02099609375,25.496999740600586 220.02099609375,25.496999740600586 C226.156005859375,25.496999740600586 231.1280059814453,20.52400016784668 231.1280059814453,14.388999938964844 C231.1280059814453,14.388999938964844 231.1280059814453,-0.17499999701976776 231.1280059814453,-0.17499999701976776 C231.1280059814453,-6.309999942779541 226.156005859375,-11.282999992370605 220.02099609375,-11.282999992370605 C220.02099609375,-11.282999992370605 -35.37099838256836,-10.907999992370605 -35.37099838256836,-10.907999992370605"/></g></g><g transform="matrix(0.7071067690849304,-0.7071067690849304,-0.7071067690849304,-0.7071067690849304,221.54391479492188,216.44540405273438)" opacity="1" style="display: none;"><g opacity="1" transform="matrix(1,0,0,1,0,0)"><path class="secondary" fill="rgb(47,232,72)" fill-opacity="1" d=" M-61.28411102294922,21.343650817871094 C-61.28411102294922,21.343650817871094 112.92889404296875,20.50108528137207 112.92889404296875,20.50108528137207 C112.92889404296875,20.50108528137207 112.92889404296875,20.5274715423584 112.92889404296875,20.5274715423584 C112.92889404296875,20.5274715423584 144.3459014892578,20.5274715423584 144.3459014892578,20.5274715423584 C144.3459014892578,20.5274715423584 144.3459014892578,20.510940551757812 144.3459014892578,20.510940551757812 C144.3459014892578,20.510940551757812 175.7628936767578,20.510940551757812 175.7628936767578,20.510940551757812 C175.7628936767578,20.510940551757812 175.7628936767578,20.5274715423584 175.7628936767578,20.5274715423584 C175.7628936767578,20.5274715423584 207.17889404296875,20.5274715423584 207.17889404296875,20.5274715423584 C207.17889404296875,20.5274715423584 207.17889404296875,20.50108528137207 207.17889404296875,20.50108528137207 C207.17889404296875,20.50108528137207 220.14889526367188,20.501028060913086 220.14889526367188,20.501028060913086 C226.2838897705078,20.501028060913086 231.13099670410156,16.5272216796875 231.13099670410156,10.39222240447998 C231.13099670410156,10.39222240447998 231.25689697265625,6.319764137268066 231.25689697265625,6.319764137268066 C231.25689697265625,0.18476422131061554 226.28289794921875,-4.788235664367676 220.14889526367188,-4.788235664367676 C220.14889526367188,-4.788235664367676 -61.28411102294922,-3.944613456726074 -61.28411102294922,-3.944613456726074"/></g></g></g></g><g transform="matrix(0.7071067690849304,-0.7071067690849304,0.7071067690849304,0.7071067690849304,211.443603515625,204.69808959960938)" opacity="1" style="display: none;"><g opacity="1" transform="matrix(1,0,0,1,0,0)"><path stroke-linecap="butt" stroke-linejoin="miter" fill-opacity="0" stroke-miterlimit="4" class="secondary" stroke="rgb(47,232,72)" stroke-opacity="1" stroke-width="2" d="M0 0"/></g><path class="secondary" fill="rgb(47,232,72)" fill-opacity="1" d=" M-68.88607025146484,18.82479476928711 C-68.88607025146484,23.174148559570312 -102.89517211914062,26.6989803314209 -144.84817504882812,26.6989803314209 C-186.80117797851562,26.6989803314209 -220.81106567382812,23.174148559570312 -220.81106567382812,18.82479476928711 C-220.81106567382812,14.47544002532959 -186.80117797851562,10.949810028076172 -144.84817504882812,10.949810028076172 C-102.89517211914062,10.949810028076172 -68.88607025146484,14.47544002532959 -68.88607025146484,18.82479476928711z M-99.60517120361328,18.82489585876465 C-99.60517120361328,16.234905242919922 -119.86116790771484,14.13402271270752 -144.84817504882812,14.13402271270752 C-169.83517456054688,14.13402271270752 -190.09207153320312,16.234804153442383 -190.09207153320312,18.82479476928711 C-190.09207153320312,21.414785385131836 -169.83517456054688,23.514768600463867 -144.84817504882812,23.514768600463867 C-119.86116790771484,23.514768600463867 -99.60517120361328,21.414886474609375 -99.60517120361328,18.82489585876465z"/><path class="secondary" fill="rgb(47,232,72)" fill-opacity="0.5" d=" M-68.88607025146484,18.82479476928711 C-68.88607025146484,23.174148559570312 -102.89517211914062,26.6989803314209 -144.84817504882812,26.6989803314209 C-186.80117797851562,26.6989803314209 -220.81106567382812,23.174148559570312 -220.81106567382812,18.82479476928711 C-220.81106567382812,14.47544002532959 -186.80117797851562,10.949810028076172 -144.84817504882812,10.949810028076172 C-102.89517211914062,10.949810028076172 -68.88607025146484,14.47544002532959 -68.88607025146484,18.82479476928711z M-99.60517120361328,18.82489585876465 C-99.60517120361328,16.234905242919922 -119.86116790771484,14.13402271270752 -144.84817504882812,14.13402271270752 C-169.83517456054688,14.13402271270752 -190.09207153320312,16.234804153442383 -190.09207153320312,18.82479476928711 C-190.09207153320312,21.414785385131836 -169.83517456054688,23.514768600463867 -144.84817504882812,23.514768600463867 C-119.86116790771484,23.514768600463867 -99.60517120361328,21.414886474609375 -99.60517120361328,18.82489585876465z" style="mix-blend-mode: multiply;"/><g opacity="1" transform="matrix(1,0,0,1,0,0)"/></g><g transform="matrix(0.7071067690849304,-0.7071067690849304,0.7071067690849304,0.7071067690849304,211.443603515625,204.69808959960938)" opacity="1" style="display: block;"><g opacity="1" transform="matrix(1,0,0,1,0,0)"><path stroke-linecap="butt" stroke-linejoin="miter" fill-opacity="0" stroke-miterlimit="4" class="secondary" stroke="rgb(47,232,72)" stroke-opacity="1" stroke-width="2" d="M0 0"/></g><g opacity="1" transform="matrix(1,0,0,1,0,0)"><path class="secondary" fill="rgb(47,232,72)" fill-opacity="1" d=" M-69.00199890136719,7.142000198364258 C-69.00199890136719,-34.59199905395508 -103.01200103759766,-68.42500305175781 -144.96499633789062,-68.42500305175781 C-186.91799926757812,-68.42500305175781 -220.927001953125,-34.59199905395508 -220.927001953125,7.142000198364258 C-220.927001953125,48.875999450683594 -186.91799926757812,82.70800018310547 -144.96499633789062,82.70800018310547 C-103.01200103759766,82.70800018310547 -69.00199890136719,48.875999450683594 -69.00199890136719,7.142000198364258z M-99.72200012207031,7.142000198364258 C-99.72200012207031,31.999000549316406 -119.97799682617188,52.14799880981445 -144.96499633789062,52.14799880981445 C-169.95199584960938,52.14799880981445 -190.20799255371094,31.999000549316406 -190.20799255371094,7.142000198364258 C-190.20799255371094,-17.71500015258789 -169.95199584960938,-37.8650016784668 -144.96499633789062,-37.8650016784668 C-119.97799682617188,-37.8650016784668 -99.72200012207031,-17.71500015258789 -99.72200012207031,7.142000198364258z"/><path class="secondary" fill="rgb(47,232,72)" fill-opacity="0.5" d=" M-69.00199890136719,7.142000198364258 C-69.00199890136719,-34.59199905395508 -103.01200103759766,-68.42500305175781 -144.96499633789062,-68.42500305175781 C-186.91799926757812,-68.42500305175781 -220.927001953125,-34.59199905395508 -220.927001953125,7.142000198364258 C-220.927001953125,48.875999450683594 -186.91799926757812,82.70800018310547 -144.96499633789062,82.70800018310547 C-103.01200103759766,82.70800018310547 -69.00199890136719,48.875999450683594 -69.00199890136719,7.142000198364258z M-99.72200012207031,7.142000198364258 C-99.72200012207031,31.999000549316406 -119.97799682617188,52.14799880981445 -144.96499633789062,52.14799880981445 C-169.95199584960938,52.14799880981445 -190.20799255371094,31.999000549316406 -190.20799255371094,7.142000198364258 C-190.20799255371094,-17.71500015258789 -169.95199584960938,-37.8650016784668 -144.96499633789062,-37.8650016784668 C-119.97799682617188,-37.8650016784668 -99.72200012207031,-17.71500015258789 -99.72200012207031,7.142000198364258z" style="mix-blend-mode: multiply;"/></g></g><g transform="matrix(0.7071067690849304,-0.7071067690849304,-0.7071067690849304,-0.7071067690849304,221.54391479492188,216.44540405273438)" opacity="1" style="display: none;"><g opacity="1" transform="matrix(1,0,0,1,0,0)"><path stroke-linecap="butt" stroke-linejoin="miter" fill-opacity="0" stroke-miterlimit="4" class="secondary" stroke="rgb(47,232,72)" stroke-opacity="1" stroke-width="2" d="M0 0"/></g><g opacity="1" transform="matrix(1,0,0,1,0,0)"><path class="secondary" fill="rgb(47,232,72)" fill-opacity="1" d=" M-68.9740219116211,-4.848333835601807 C-68.9740219116211,-4.772039413452148 -102.98302459716797,-4.711362838745117 -144.93601989746094,-4.711362838745117 C-186.88902282714844,-4.711362838745117 -220.89901733398438,-4.772039413452148 -220.89901733398438,-4.848333835601807 C-220.89901733398438,-4.924628257751465 -186.88902282714844,-4.986304759979248 -144.93601989746094,-4.986304759979248 C-102.98302459716797,-4.986304759979248 -68.9740219116211,-4.924628257751465 -68.9740219116211,-4.848333835601807z M-99.69302368164062,-4.848333835601807 C-99.69302368164062,-4.893259048461914 -119.94902038574219,-4.930985450744629 -144.93601989746094,-4.930985450744629 C-169.9230194091797,-4.930985450744629 -190.17901611328125,-4.893259048461914 -190.17901611328125,-4.848333835601807 C-190.17901611328125,-4.803408622741699 -169.9230194091797,-4.766682147979736 -144.93601989746094,-4.766682147979736 C-119.94902038574219,-4.766682147979736 -99.69302368164062,-4.803408622741699 -99.69302368164062,-4.848333835601807z"/><path class="secondary" fill="rgb(47,232,72)" fill-opacity="0.5" d=" M-68.9740219116211,-4.848333835601807 C-68.9740219116211,-4.772039413452148 -102.98302459716797,-4.711362838745117 -144.93601989746094,-4.711362838745117 C-186.88902282714844,-4.711362838745117 -220.89901733398438,-4.772039413452148 -220.89901733398438,-4.848333835601807 C-220.89901733398438,-4.924628257751465 -186.88902282714844,-4.986304759979248 -144.93601989746094,-4.986304759979248 C-102.98302459716797,-4.986304759979248 -68.9740219116211,-4.924628257751465 -68.9740219116211,-4.848333835601807z M-99.69302368164062,-4.848333835601807 C-99.69302368164062,-4.893259048461914 -119.94902038574219,-4.930985450744629 -144.93601989746094,-4.930985450744629 C-169.9230194091797,-4.930985450744629 -190.17901611328125,-4.893259048461914 -190.17901611328125,-4.848333835601807 C-190.17901611328125,-4.803408622741699 -169.9230194091797,-4.766682147979736 -144.93601989746094,-4.766682147979736 C-119.94902038574219,-4.766682147979736 -99.69302368164062,-4.803408622741699 -99.69302368164062,-4.848333835601807z" style="mix-blend-mode: multiply;"/></g></g><g transform="matrix(0.7071067690849304,-0.7071067690849304,-0.7071067690849304,-0.7071067690849304,221.54391479492188,216.44540405273438)" opacity="1" style="display: none;"><g opacity="1" transform="matrix(1,0,0,1,0,0)"><path stroke-linecap="round" stroke-linejoin="round" fill-opacity="0" class="primary" stroke="rgb(18,19,49)" stroke-opacity="1" stroke-width="7" d=" M-99.94581604003906,-4.951251029968262 C-99.94581604003906,-4.906325817108154 -120.20182037353516,-4.869599342346191 -145.18881225585938,-4.869599342346191 C-170.1758270263672,-4.869599342346191 -190.43182373046875,-4.906325817108154 -190.43182373046875,-4.951251029968262 C-190.43182373046875,-4.996176242828369 -170.1758270263672,-5.03290319442749 -145.18881225585938,-5.03290319442749 C-120.20182037353516,-5.03290319442749 -99.94581604003906,-4.996176242828369 -99.94581604003906,-4.951251029968262z M-99.69302368164062,-4.848333835601807 C-99.69302368164062,-4.803408622741699 -119.94902038574219,-4.766682147979736 -144.93601989746094,-4.766682147979736 C-169.9230194091797,-4.766682147979736 -190.17901611328125,-4.803408622741699 -190.17901611328125,-4.848333835601807 C-190.17901611328125,-4.893259048461914 -169.9230194091797,-4.930985450744629 -144.93601989746094,-4.930985450744629 C-119.94902038574219,-4.930985450744629 -99.69302368164062,-4.893259048461914 -99.69302368164062,-4.848333835601807z"/></g></g><g transform="matrix(1,0,0,1,215,215)" opacity="1" style="display: none;"><g opacity="1" transform="matrix(1,0,0,1,0,0)"><path stroke-linecap="butt" stroke-linejoin="miter" fill-opacity="0" stroke-miterlimit="4" class="secondary" stroke="rgb(47,232,72)" stroke-opacity="1" stroke-width="2" d="M0 0"/></g><g opacity="1" transform="matrix(1,0,0,1,0,0)"><path class="secondary" fill="rgb(47,232,72)" fill-opacity="1" d=" M-52.24176788330078,34.07536697387695 C-54.2208366394043,33.02880096435547 -92.67230987548828,66.48308563232422 -113.42439270019531,87.06390380859375 C-132.95654296875,106.3514404296875 -162.14231872558594,142.3231658935547 -161.3448028564453,143.3705291748047 C-161.34034729003906,143.37640380859375 -145.85321044921875,158.42832946777344 -145.857666015625,158.4224395751953 C-146.65615844726562,157.3639373779297 -117.18850708007812,121.53978729248047 -97.44012451171875,102.24949645996094 C-76.44843292236328,81.67774200439453 -37.73749542236328,48.88926315307617 -36.08143997192383,49.80181121826172 C-36.076805114746094,49.80430603027344 -52.23713302612305,34.07786178588867 -52.24176788330078,34.07536697387695z"/><path class="secondary" fill="rgb(47,232,72)" fill-opacity="0.5" d=" M-52.24176788330078,34.07536697387695 C-54.2208366394043,33.02880096435547 -92.67230987548828,66.48308563232422 -113.42439270019531,87.06390380859375 C-132.95654296875,106.3514404296875 -162.14231872558594,142.3231658935547 -161.3448028564453,143.3705291748047 C-161.34034729003906,143.37640380859375 -145.85321044921875,158.42832946777344 -145.857666015625,158.4224395751953 C-146.65615844726562,157.3639373779297 -117.18850708007812,121.53978729248047 -97.44012451171875,102.24949645996094 C-76.44843292236328,81.67774200439453 -37.73749542236328,48.88926315307617 -36.08143997192383,49.80181121826172 C-36.076805114746094,49.80430603027344 -52.23713302612305,34.07786178588867 -52.24176788330078,34.07536697387695z" style="mix-blend-mode: multiply;"/></g></g><g transform="matrix(1,0,0,1,215,215)" opacity="1" style="display: none;"><g opacity="1" transform="matrix(1,0,0,1,0,0)"><path stroke-linecap="butt" stroke-linejoin="miter" fill-opacity="0" stroke-miterlimit="4" class="secondary" stroke="rgb(47,232,72)" stroke-opacity="1" stroke-width="2" d="M0 0"/></g><g opacity="1" transform="matrix(1,0,0,1,0,0)"><path class="secondary" fill="rgb(47,232,72)" fill-opacity="1" d=" M-49.60200119018555,39.95699691772461 C-71.8119888305664,28.212003707885742 -113.70298767089844,9.545035362243652 -151.78297424316406,43.45402526855469 C-195.22695922851562,82.1390151977539 -171.2639923095703,130.2930145263672 -162.31399536132812,142.0469970703125 C-162.2639923095703,142.11300659179688 -162.2419891357422,142.3620147705078 -162.2919921875,142.29600524902344 C-171.25299072265625,130.41702270507812 -195.33395385742188,82.35502624511719 -151.09896850585938,42.85203552246094 C-111.2499771118164,7.266046524047852 -68.2769775390625,29.868011474609375 -49.69198989868164,40.109004974365234 C-49.639991760253906,40.13700485229492 -49.55000305175781,39.9849967956543 -49.60200119018555,39.95699691772461z"/><path class="secondary" fill="rgb(47,232,72)" fill-opacity="0.5" d=" M-49.60200119018555,39.95699691772461 C-71.8119888305664,28.212003707885742 -113.70298767089844,9.545035362243652 -151.78297424316406,43.45402526855469 C-195.22695922851562,82.1390151977539 -171.2639923095703,130.2930145263672 -162.31399536132812,142.0469970703125 C-162.2639923095703,142.11300659179688 -162.2419891357422,142.3620147705078 -162.2919921875,142.29600524902344 C-171.25299072265625,130.41702270507812 -195.33395385742188,82.35502624511719 -151.09896850585938,42.85203552246094 C-111.2499771118164,7.266046524047852 -68.2769775390625,29.868011474609375 -49.69198989868164,40.109004974365234 C-49.639991760253906,40.13700485229492 -49.55000305175781,39.9849967956543 -49.60200119018555,39.95699691772461z" style="mix-blend-mode: multiply;"/></g></g><g transform="matrix(1,0,0,1,215,215)" opacity="1" style="display: none;"><g opacity="1" transform="matrix(1,0,0,1,0,0)"><path stroke-linecap="butt" stroke-linejoin="miter" fill-opacity="0" stroke-miterlimit="4" class="secondary" stroke="rgb(47,232,72)" stroke-opacity="1" stroke-width="2" d="M0 0"/></g><g opacity="1" transform="matrix(1,0,0,1,0,0)"><path class="secondary" fill="rgb(47,232,72)" fill-opacity="1" d=" M-52.4954948425293,33.51004409790039 C-52.53003692626953,33.49177932739258 -90.6509017944336,71.95579528808594 -109.73748779296875,91.25554656982422 C-126.9713134765625,108.67866516113281 -161.26182556152344,143.4892120361328 -161.24790954589844,143.5074920654297 C-161.24783325195312,143.50758361816406 -144.2682342529297,159.99057006835938 -144.268310546875,159.99046325683594 C-144.28224182128906,159.97198486328125 -109.66091918945312,125.32859802246094 -92.26611328125,107.98108673095703 C-73.08692169189453,88.85244750976562 -34.80213928222656,50.717529296875 -34.77323913574219,50.73345184326172 C-34.77315902709961,50.73349380493164 -52.49541091918945,33.51008605957031 -52.4954948425293,33.51004409790039z"/><path class="secondary" fill="rgb(47,232,72)" fill-opacity="0.5" d=" M-52.4954948425293,33.51004409790039 C-52.53003692626953,33.49177932739258 -90.6509017944336,71.95579528808594 -109.73748779296875,91.25554656982422 C-126.9713134765625,108.67866516113281 -161.26182556152344,143.4892120361328 -161.24790954589844,143.5074920654297 C-161.24783325195312,143.50758361816406 -144.2682342529297,159.99057006835938 -144.268310546875,159.99046325683594 C-144.28224182128906,159.97198486328125 -109.66091918945312,125.32859802246094 -92.26611328125,107.98108673095703 C-73.08692169189453,88.85244750976562 -34.80213928222656,50.717529296875 -34.77323913574219,50.73345184326172 C-34.77315902709961,50.73349380493164 -52.49541091918945,33.51008605957031 -52.4954948425293,33.51004409790039z" style="mix-blend-mode: multiply;"/></g></g><g transform="matrix(1,0,0,1,215,215)" opacity="1" style="display: none;"><g opacity="1" transform="matrix(1,0,0,1,0,0)"><path stroke-linecap="butt" stroke-linejoin="miter" fill-opacity="0" stroke-miterlimit="4" class="secondary" stroke="rgb(47,232,72)" stroke-opacity="1" stroke-width="2" d="M0 0"/></g><g opacity="1" transform="matrix(1,0,0,1,0,0)"><path class="secondary" fill="rgb(47,232,72)" fill-opacity="1" d=" M-49.60200119018555,39.957000732421875 C-71.81199645996094,28.211999893188477 -113.70299530029297,9.545005798339844 -151.78298950195312,43.454002380371094 C-195.22698974609375,82.13899993896484 -171.2639923095703,130.29299926757812 -162.31399536132812,142.0469970703125 C-162.2639923095703,142.11300659179688 -162.24200439453125,142.36199951171875 -162.2919921875,142.29600524902344 C-171.25299072265625,130.41700744628906 -195.33399963378906,82.3550033569336 -151.0989990234375,42.85200500488281 C-111.25,7.266006946563721 -68.2770004272461,29.86800193786621 -49.69199752807617,40.10900115966797 C-49.63999938964844,40.137001037597656 -49.54999923706055,39.98500061035156 -49.60200119018555,39.957000732421875z"/><path class="secondary" fill="rgb(47,232,72)" fill-opacity="0.5" d=" M-49.60200119018555,39.957000732421875 C-71.81199645996094,28.211999893188477 -113.70299530029297,9.545005798339844 -151.78298950195312,43.454002380371094 C-195.22698974609375,82.13899993896484 -171.2639923095703,130.29299926757812 -162.31399536132812,142.0469970703125 C-162.2639923095703,142.11300659179688 -162.24200439453125,142.36199951171875 -162.2919921875,142.29600524902344 C-171.25299072265625,130.41700744628906 -195.33399963378906,82.3550033569336 -151.0989990234375,42.85200500488281 C-111.25,7.266006946563721 -68.2770004272461,29.86800193786621 -49.69199752807617,40.10900115966797 C-49.63999938964844,40.137001037597656 -49.54999923706055,39.98500061035156 -49.60200119018555,39.957000732421875z" style="mix-blend-mode: multiply;"/></g></g><g clip-path="url(#__lottie_element_2509)" transform="matrix(1,0,0,1,0,0)" opacity="1" style="display: block;"><g transform="matrix(0.7071067690849304,-0.7071067690849304,0.7071067690849304,0.7071067690849304,211.443603515625,204.69808959960938)" opacity="1" style="display: none;"><g opacity="1" transform="matrix(1,0,0,1,0,0)"><path class="secondary" fill="rgb(47,232,72)" fill-opacity="1" d=" M-68.97683715820312,-3.642312526702881 C-68.97683715820312,0.7070418000221252 -102.9859390258789,4.231873989105225 -144.93893432617188,4.231873989105225 C-186.89193725585938,4.231873989105225 -220.90184020996094,0.7070418000221252 -220.90184020996094,-3.642312526702881 C-220.90184020996094,-7.991666793823242 -186.89193725585938,-11.51729679107666 -144.93893432617188,-11.51729679107666 C-102.9859390258789,-11.51729679107666 -68.97683715820312,-7.991666793823242 -68.97683715820312,-3.642312526702881z M-99.69593811035156,-3.6422111988067627 C-99.69593811035156,-6.232202053070068 -119.95193481445312,-8.333084106445312 -144.93893432617188,-8.333084106445312 C-169.92593383789062,-8.333084106445312 -190.1819305419922,-6.232303142547607 -190.1819305419922,-3.642312526702881 C-190.1819305419922,-1.0523217916488647 -169.92593383789062,1.047661304473877 -144.93893432617188,1.047661304473877 C-119.95193481445312,1.047661304473877 -99.69593811035156,-1.0522204637527466 -99.69593811035156,-3.6422111988067627z"/></g></g><g transform="matrix(0.7071067690849304,-0.7071067690849304,0.7071067690849304,0.7071067690849304,211.443603515625,204.69808959960938)" opacity="0.5" style="mix-blend-mode: multiply; display: none;"><g opacity="1" transform="matrix(1,0,0,1,0,0)"><path class="secondary" fill="rgb(47,232,72)" fill-opacity="1" d=" M-68.97683715820312,-3.642312526702881 C-68.97683715820312,0.7070418000221252 -102.9859390258789,4.231873989105225 -144.93893432617188,4.231873989105225 C-186.89193725585938,4.231873989105225 -220.90184020996094,0.7070418000221252 -220.90184020996094,-3.642312526702881 C-220.90184020996094,-7.991666793823242 -186.89193725585938,-11.51729679107666 -144.93893432617188,-11.51729679107666 C-102.9859390258789,-11.51729679107666 -68.97683715820312,-7.991666793823242 -68.97683715820312,-3.642312526702881z M-99.69593811035156,-3.6422111988067627 C-99.69593811035156,-6.232202053070068 -119.95193481445312,-8.333084106445312 -144.93893432617188,-8.333084106445312 C-169.92593383789062,-8.333084106445312 -190.1819305419922,-6.232303142547607 -190.1819305419922,-3.642312526702881 C-190.1819305419922,-1.0523217916488647 -169.92593383789062,1.047661304473877 -144.93893432617188,1.047661304473877 C-119.95193481445312,1.047661304473877 -99.69593811035156,-1.0522204637527466 -99.69593811035156,-3.6422111988067627z"/></g></g><g transform="matrix(0.7071067690849304,-0.7071067690849304,0.7071067690849304,0.7071067690849304,211.443603515625,204.69808959960938)" opacity="1" style="display: block;"><g opacity="1" transform="matrix(1,0,0,1,0,0)"><path class="secondary" fill="rgb(47,232,72)" fill-opacity="1" d=" M-69.00199890136719,7.142000198364258 C-69.00199890136719,-34.59199905395508 -103.01200103759766,-68.42500305175781 -144.96499633789062,-68.42500305175781 C-186.91799926757812,-68.42500305175781 -220.927001953125,-34.59199905395508 -220.927001953125,7.142000198364258 C-220.927001953125,48.875999450683594 -186.91799926757812,82.70800018310547 -144.96499633789062,82.70800018310547 C-103.01200103759766,82.70800018310547 -69.00199890136719,48.875999450683594 -69.00199890136719,7.142000198364258z M-99.72200012207031,7.142000198364258 C-99.72200012207031,31.999000549316406 -119.97799682617188,52.14799880981445 -144.96499633789062,52.14799880981445 C-169.95199584960938,52.14799880981445 -190.20799255371094,31.999000549316406 -190.20799255371094,7.142000198364258 C-190.20799255371094,-17.71500015258789 -169.95199584960938,-37.8650016784668 -144.96499633789062,-37.8650016784668 C-119.97799682617188,-37.8650016784668 -99.72200012207031,-17.71500015258789 -99.72200012207031,7.142000198364258z"/></g></g><g transform="matrix(0.7071067690849304,-0.7071067690849304,0.7071067690849304,0.7071067690849304,211.443603515625,204.69808959960938)" opacity="0.5" style="mix-blend-mode: multiply; display: block;"><g opacity="1" transform="matrix(1,0,0,1,0,0)"><path class="secondary" fill="rgb(47,232,72)" fill-opacity="1" d=" M-69.00199890136719,7.142000198364258 C-69.00199890136719,-34.59199905395508 -103.01200103759766,-68.42500305175781 -144.96499633789062,-68.42500305175781 C-186.91799926757812,-68.42500305175781 -220.927001953125,-34.59199905395508 -220.927001953125,7.142000198364258 C-220.927001953125,48.875999450683594 -186.91799926757812,82.70800018310547 -144.96499633789062,82.70800018310547 C-103.01200103759766,82.70800018310547 -69.00199890136719,48.875999450683594 -69.00199890136719,7.142000198364258z M-99.72200012207031,7.142000198364258 C-99.72200012207031,31.999000549316406 -119.97799682617188,52.14799880981445 -144.96499633789062,52.14799880981445 C-169.95199584960938,52.14799880981445 -190.20799255371094,31.999000549316406 -190.20799255371094,7.142000198364258 C-190.20799255371094,-17.71500015258789 -169.95199584960938,-37.8650016784668 -144.96499633789062,-37.8650016784668 C-119.97799682617188,-37.8650016784668 -99.72200012207031,-17.71500015258789 -99.72200012207031,7.142000198364258z"/></g></g><g transform="matrix(0.7071067690849304,-0.7071067690849304,-0.7071067690849304,-0.7071067690849304,221.54391479492188,216.44540405273438)" opacity="1" style="display: none;"><g opacity="1" transform="matrix(1,0,0,1,0,0)"><path class="secondary" fill="rgb(47,232,72)" fill-opacity="1" d=" M-68.87310028076172,20.131528854370117 C-68.87310028076172,20.207822799682617 -102.8821029663086,20.26849937438965 -144.83509826660156,20.26849937438965 C-186.78810119628906,20.26849937438965 -220.79811096191406,20.207822799682617 -220.79811096191406,20.131528854370117 C-220.79811096191406,20.055234909057617 -186.78810119628906,19.99355697631836 -144.83509826660156,19.99355697631836 C-102.8821029663086,19.99355697631836 -68.87310028076172,20.055234909057617 -68.87310028076172,20.131528854370117z M-99.59210205078125,20.131528854370117 C-99.59210205078125,20.08660316467285 -119.84810638427734,20.048877716064453 -144.83509826660156,20.048877716064453 C-169.8220977783203,20.048877716064453 -190.0791015625,20.08660316467285 -190.0791015625,20.131528854370117 C-190.0791015625,20.176454544067383 -169.8220977783203,20.213180541992188 -144.83509826660156,20.213180541992188 C-119.84810638427734,20.213180541992188 -99.59210205078125,20.176454544067383 -99.59210205078125,20.131528854370117z"/></g></g><g transform="matrix(0.7071067690849304,-0.7071067690849304,-0.7071067690849304,-0.7071067690849304,221.54391479492188,216.44540405273438)" opacity="0.5" style="mix-blend-mode: multiply; display: none;"><g opacity="1" transform="matrix(1,0,0,1,0,0)"><path class="secondary" fill="rgb(47,232,72)" fill-opacity="1" d=" M-68.87310028076172,20.131528854370117 C-68.87310028076172,20.207822799682617 -102.8821029663086,20.26849937438965 -144.83509826660156,20.26849937438965 C-186.78810119628906,20.26849937438965 -220.79811096191406,20.207822799682617 -220.79811096191406,20.131528854370117 C-220.79811096191406,20.055234909057617 -186.78810119628906,19.99355697631836 -144.83509826660156,19.99355697631836 C-102.8821029663086,19.99355697631836 -68.87310028076172,20.055234909057617 -68.87310028076172,20.131528854370117z M-99.59210205078125,20.131528854370117 C-99.59210205078125,20.08660316467285 -119.84810638427734,20.048877716064453 -144.83509826660156,20.048877716064453 C-169.8220977783203,20.048877716064453 -190.0791015625,20.08660316467285 -190.0791015625,20.131528854370117 C-190.0791015625,20.176454544067383 -169.8220977783203,20.213180541992188 -144.83509826660156,20.213180541992188 C-119.84810638427734,20.213180541992188 -99.59210205078125,20.176454544067383 -99.59210205078125,20.131528854370117z"/></g></g></g><g mask="url(#__lottie_element_2516_1)" style="display: block;"><g clip-path="url(#__lottie_element_2513)" transform="matrix(1,0,0,1,12,4)" opacity="1"><g transform="matrix(0.7071067690849304,-0.7071067690849304,0.7071067690849304,0.7071067690849304,211.443603515625,204.69808959960938)" opacity="1" style="display: none;"><g opacity="1" transform="matrix(1,0,0,1,0,0)"><path class="secondary" fill="rgb(47,232,72)" fill-opacity="1" d=" M-68.97683715820312,-3.642312526702881 C-68.97683715820312,0.7070418000221252 -102.9859390258789,4.231873989105225 -144.93893432617188,4.231873989105225 C-186.89193725585938,4.231873989105225 -220.90184020996094,0.7070418000221252 -220.90184020996094,-3.642312526702881 C-220.90184020996094,-7.991666793823242 -186.89193725585938,-11.51729679107666 -144.93893432617188,-11.51729679107666 C-102.9859390258789,-11.51729679107666 -68.97683715820312,-7.991666793823242 -68.97683715820312,-3.642312526702881z M-99.69593811035156,-3.6422111988067627 C-99.69593811035156,-6.232202053070068 -119.95193481445312,-8.333084106445312 -144.93893432617188,-8.333084106445312 C-169.92593383789062,-8.333084106445312 -190.1819305419922,-6.232303142547607 -190.1819305419922,-3.642312526702881 C-190.1819305419922,-1.0523217916488647 -169.92593383789062,1.047661304473877 -144.93893432617188,1.047661304473877 C-119.95193481445312,1.047661304473877 -99.69593811035156,-1.0522204637527466 -99.69593811035156,-3.6422111988067627z"/></g></g><g transform="matrix(0.7071067690849304,-0.7071067690849304,0.7071067690849304,0.7071067690849304,211.443603515625,204.69808959960938)" opacity="1" style="display: block;"><g opacity="1" transform="matrix(1,0,0,1,0,0)"><path class="secondary" fill="rgb(47,232,72)" fill-opacity="1" d=" M-69.00199890136719,7.142000198364258 C-69.00199890136719,-34.59199905395508 -103.01200103759766,-68.42500305175781 -144.96499633789062,-68.42500305175781 C-186.91799926757812,-68.42500305175781 -220.927001953125,-34.59199905395508 -220.927001953125,7.142000198364258 C-220.927001953125,48.875999450683594 -186.91799926757812,82.70800018310547 -144.96499633789062,82.70800018310547 C-103.01200103759766,82.70800018310547 -69.00199890136719,48.875999450683594 -69.00199890136719,7.142000198364258z M-99.72200012207031,7.142000198364258 C-99.72200012207031,31.999000549316406 -119.97799682617188,52.14799880981445 -144.96499633789062,52.14799880981445 C-169.95199584960938,52.14799880981445 -190.20799255371094,31.999000549316406 -190.20799255371094,7.142000198364258 C-190.20799255371094,-17.71500015258789 -169.95199584960938,-37.8650016784668 -144.96499633789062,-37.8650016784668 C-119.97799682617188,-37.8650016784668 -99.72200012207031,-17.71500015258789 -99.72200012207031,7.142000198364258z"/></g></g><g transform="matrix(0.7071067690849304,-0.7071067690849304,-0.7071067690849304,-0.7071067690849304,221.54391479492188,216.44540405273438)" opacity="1" style="display: none;"><g opacity="1" transform="matrix(1,0,0,1,0,0)"><path class="secondary" fill="rgb(47,232,72)" fill-opacity="1" d=" M-68.87310028076172,20.131528854370117 C-68.87310028076172,20.207822799682617 -102.8821029663086,20.26849937438965 -144.83509826660156,20.26849937438965 C-186.78810119628906,20.26849937438965 -220.79811096191406,20.207822799682617 -220.79811096191406,20.131528854370117 C-220.79811096191406,20.055234909057617 -186.78810119628906,19.99355697631836 -144.83509826660156,19.99355697631836 C-102.8821029663086,19.99355697631836 -68.87310028076172,20.055234909057617 -68.87310028076172,20.131528854370117z M-99.59210205078125,20.131528854370117 C-99.59210205078125,20.08660316467285 -119.84810638427734,20.048877716064453 -144.83509826660156,20.048877716064453 C-169.8220977783203,20.048877716064453 -190.0791015625,20.08660316467285 -190.0791015625,20.131528854370117 C-190.0791015625,20.176454544067383 -169.8220977783203,20.213180541992188 -144.83509826660156,20.213180541992188 C-119.84810638427734,20.213180541992188 -99.59210205078125,20.176454544067383 -99.59210205078125,20.131528854370117z"/></g></g></g></g><g clip-path="url(#__lottie_element_2521)" transform="matrix(1,0,0,1,0,0)" opacity="1" style="display: block;"><g transform="matrix(0.7071067690849304,-0.7071067690849304,0.7071067690849304,0.7071067690849304,211.443603515625,204.69808959960938)" opacity="1" style="display: none;"><path class="secondary" fill="rgb(47,232,72)" fill-opacity="1" d=" M-76.55696868896484,-7.748227596282959 C-76.55696868896484,-7.748227596282959 -75.061279296875,-1.404443621635437 -75.14836883544922,7.200798511505127 C-75.23236846923828,15.644505500793457 -76.51652526855469,22.554290771484375 -76.51652526855469,22.554290771484375 C-76.51652526855469,22.554290771484375 -47.86745834350586,22.45492172241211 -47.86745834350586,22.45492172241211 C-40.9444580078125,22.45492172241211 -35.331459045410156,16.841819763183594 -35.331459045410156,9.918819427490234 C-35.331459045410156,9.918819427490234 -35.331459045410156,9.918819427490234 -35.331459045410156,9.918819427490234 C-35.331459045410156,9.918819427490234 -35.37099838256836,5.005537033081055 -35.37099838256836,5.005537033081055 C-35.37099838256836,5.005537033081055 -35.37099838256836,5.005537033081055 -35.37099838256836,5.005537033081055 C-35.37099838256836,-1.9174631834030151 -40.98400115966797,-7.530463218688965 -47.90700149536133,-7.530463218688965 C-47.90700149536133,-7.530463218688965 -76.55696868896484,-7.748227596282959 -76.55696868896484,-7.748227596282959z"/><g opacity="1" transform="matrix(1,0,0,1,0,0)"/></g><g transform="matrix(0.7071067690849304,-0.7071067690849304,0.7071067690849304,0.7071067690849304,211.443603515625,204.69808959960938)" opacity="1" style="display: block;"><path class="secondary" fill="rgb(47,232,72)" fill-opacity="1" d=" M-83.70600128173828,-30.30699920654297 C-83.70600128173828,-30.30699920654297 -74.43399810791016,-19.19300079345703 -74.51300048828125,7.677999973297119 C-74.59700012207031,36.138999938964844 -83.70600128173828,44.20000076293945 -83.70600128173828,44.20000076293945 C-83.70600128173828,44.20000076293945 -47.90700149536133,44.736000061035156 -47.90700149536133,44.736000061035156 C-40.98400115966797,44.736000061035156 -35.37099838256836,39.12200164794922 -35.37099838256836,32.19900131225586 C-35.37099838256836,32.19900131225586 -35.37099838256836,32.19900131225586 -35.37099838256836,32.19900131225586 C-35.37099838256836,32.19900131225586 -35.37099838256836,-17.236000061035156 -35.37099838256836,-17.236000061035156 C-35.37099838256836,-17.236000061035156 -35.37099838256836,-17.236000061035156 -35.37099838256836,-17.236000061035156 C-35.37099838256836,-24.159000396728516 -40.98400115966797,-29.77199935913086 -47.90700149536133,-29.77199935913086 C-47.90700149536133,-29.77199935913086 -83.70600128173828,-30.30699920654297 -83.70600128173828,-30.30699920654297z"/><g opacity="1" transform="matrix(1,0,0,1,0,0)"/></g><g transform="matrix(0.7071067690849304,-0.7071067690849304,-0.7071067690849304,-0.7071067690849304,221.54391479492188,216.44540405273438)" opacity="1" style="display: none;"><path class="secondary" fill="rgb(47,232,72)" fill-opacity="1" d=" M-75.75740814208984,-5.2252197265625 C-75.75740814208984,-5.2252197265625 -75.13143920898438,0.5850558280944824 -75.21942901611328,7.147427558898926 C-75.30342864990234,13.35236930847168 -75.71244049072266,20.13340187072754 -75.71244049072266,20.13340187072754 C-75.71244049072266,20.13340187072754 -47.863037109375,19.962970733642578 -47.863037109375,19.962970733642578 C-40.94003677368164,19.962970733642578 -35.32703399658203,14.349969863891602 -35.32703399658203,7.4269700050354 C-35.32703399658203,7.4269700050354 -35.32703399658203,7.4269700050354 -35.32703399658203,7.4269700050354 C-35.32703399658203,7.4269700050354 -35.37099838256836,7.4930644035339355 -35.37099838256836,7.4930644035339355 C-35.37099838256836,7.4930644035339355 -35.37099838256836,7.4930644035339355 -35.37099838256836,7.4930644035339355 C-35.37099838256836,0.5700645446777344 -40.98400115966797,-5.042935371398926 -47.90700149536133,-5.042935371398926 C-47.90700149536133,-5.042935371398926 -75.75740814208984,-5.2252197265625 -75.75740814208984,-5.2252197265625z"/><g opacity="1" transform="matrix(1,0,0,1,0,0)"/></g></g><g transform="matrix(1,0,0,1,215,215)" opacity="1" style="display: none;"><g opacity="1" transform="matrix(1,0,0,1,0,0)"><path stroke-linecap="butt" stroke-linejoin="miter" fill-opacity="0" stroke-miterlimit="4" class="secondary" stroke="rgb(47,232,72)" stroke-opacity="1" stroke-width="2" d="M0 0"/></g><g opacity="1" transform="matrix(1,0,0,1,0,0)"><path class="secondary" fill="rgb(47,232,72)" fill-opacity="1" d=" M-48,40.75 C-29.500001907348633,57.75 -6.308006763458252,115.55599975585938 -50.539005279541016,154.94200134277344 C-101,199.875 -153.375,156 -161.25,143.5 C-161.29400634765625,143.4290008544922 -161.2939910888672,143.1790008544922 -161.25,143.25 C-153.375,155.875 -101.125,200.125 -49.74500274658203,154.2419891357422 C-3.459005117416382,112.90799713134766 -32.5,55.25 -47.875,40.625003814697266 C-47.917999267578125,40.58400344848633 -48.04399871826172,40.709999084472656 -48,40.75z"/></g></g><g transform="matrix(1,0,0,1,215,215)" opacity="1" style="display: none;"><g opacity="1" transform="matrix(1,0,0,1,0,0)"><path stroke-linecap="butt" stroke-linejoin="miter" fill-opacity="0" stroke-miterlimit="4" class="secondary" stroke="rgb(47,232,72)" stroke-opacity="1" stroke-width="2" d="M0 0"/></g><g opacity="1" transform="matrix(1,0,0,1,0,0)"><path class="secondary" fill="rgb(47,232,72)" fill-opacity="1" d=" M-48,40.749996185302734 C-29.50000762939453,57.74999237060547 -6.3080244064331055,115.55599212646484 -50.53901672363281,154.94198608398438 C-101.00000762939453,199.87496948242188 -153.375,156 -161.25,143.5 C-161.29400634765625,143.4290008544922 -161.2939910888672,143.1790008544922 -161.25,143.25 C-153.375,155.875 -101.12500762939453,200.12498474121094 -49.74501037597656,154.2419891357422 C-3.459014654159546,112.90798950195312 -32.5,55.25 -47.874996185302734,40.625003814697266 C-47.91799545288086,40.58400344848633 -48.044002532958984,40.709999084472656 -48,40.749996185302734z"/></g></g><g transform="matrix(0.7071067690849304,-0.7071067690849304,0.7071067690849304,0.7071067690849304,211.443603515625,204.69808959960938)" opacity="1" style="display: none;"><g opacity="1" transform="matrix(1,0,0,1,0,0)"><path stroke-linecap="round" stroke-linejoin="round" fill-opacity="0" class="primary" stroke="rgb(18,19,49)" stroke-opacity="1" stroke-width="7" d=" M-37.38944625854492,21.4819278717041 C-37.38944625854492,21.4819278717041 112.91603088378906,21.010873794555664 112.91603088378906,21.010873794555664 C112.91603088378906,21.010873794555664 112.91603088378906,23.955272674560547 112.91603088378906,23.955272674560547 C112.91603088378906,23.955272674560547 144.3329315185547,23.955272674560547 144.3329315185547,23.955272674560547 C144.3329315185547,23.955272674560547 144.3329315185547,22.12563705444336 144.3329315185547,22.12563705444336 C144.3329315185547,22.12563705444336 175.7499237060547,22.12563705444336 175.7499237060547,22.12563705444336 C175.7499237060547,22.12563705444336 175.7499237060547,23.955272674560547 175.7499237060547,23.955272674560547 C175.7499237060547,23.955272674560547 207.16603088378906,23.955272674560547 207.16603088378906,23.955272674560547 C207.16603088378906,23.955272674560547 207.16603088378906,21.010873794555664 207.16603088378906,21.010873794555664 C207.16603088378906,21.010873794555664 220.13693237304688,21.003578186035156 220.13693237304688,21.003578186035156 C226.2719268798828,21.003578186035156 231.131591796875,16.929262161254883 231.131591796875,10.794262886047363 C231.131591796875,10.794262886047363 231.24392700195312,5.666447639465332 231.24392700195312,5.666447639465332 C231.24392700195312,-0.46855229139328003 226.27102661132812,-5.44155216217041 220.13693237304688,-5.44155216217041 C220.13693237304688,-5.44155216217041 -37.38944625854492,-4.963203430175781 -37.38944625854492,-4.963203430175781"/></g></g><g transform="matrix(0.7071067690849304,-0.7071067690849304,0.7071067690849304,0.7071067690849304,211.443603515625,204.69808959960938)" opacity="1" style="display: none;"><g opacity="1" transform="matrix(1,0,0,1,0,0)"><path stroke-linecap="round" stroke-linejoin="round" fill-opacity="0" class="primary" stroke="rgb(18,19,49)" stroke-opacity="1" stroke-width="7" d=" M-68.90599822998047,-3.6496875286102295 C-68.90599822998047,-3.6496875286102295 -68.90599822998047,18.7050838470459 -68.90599822998047,18.7050838470459 M-220.875,-3.6338822841644287 C-220.875,-3.6338822841644287 -220.875,18.70822525024414 -220.875,18.70822525024414 M-68.88607025146484,18.82479476928711 C-68.88607025146484,23.174148559570312 -102.89517211914062,26.6989803314209 -144.84817504882812,26.6989803314209 C-186.80117797851562,26.6989803314209 -220.81106567382812,23.174148559570312 -220.81106567382812,18.82479476928711 C-220.81106567382812,14.47544002532959 -186.80117797851562,10.949810028076172 -144.84817504882812,10.949810028076172 C-102.89517211914062,10.949810028076172 -68.88607025146484,14.47544002532959 -68.88607025146484,18.82479476928711z M-99.60517120361328,18.82489585876465 C-99.60517120361328,21.414886474609375 -119.86116790771484,23.514768600463867 -144.84817504882812,23.514768600463867 C-169.83517456054688,23.514768600463867 -190.09207153320312,21.414785385131836 -190.09207153320312,18.82479476928711 C-190.09207153320312,16.234804153442383 -169.83517456054688,14.13402271270752 -144.84817504882812,14.13402271270752 C-119.86116790771484,14.13402271270752 -99.60517120361328,16.234905242919922 -99.60517120361328,18.82489585876465z M-76.03843688964844,22.535236358642578 C-76.03843688964844,22.535236358642578 -48.017539978027344,22.71823501586914 -48.017539978027344,22.71823501586914 C-41.094539642333984,22.71823501586914 -35.481536865234375,17.10423469543457 -35.481536865234375,10.181235313415527 C-35.481536865234375,10.181235313415527 -35.481536865234375,10.181235313415527 -35.481536865234375,10.181235313415527 C-35.481536865234375,10.181235313415527 -35.66487121582031,5.193361759185791 -35.66487121582031,5.193361759185791 C-35.66487121582031,5.193361759185791 -35.66487121582031,5.193361759185791 -35.66487121582031,5.193361759185791 C-35.66487121582031,-1.7296380996704102 -41.277870178222656,-7.34263801574707 -48.200870513916016,-7.34263801574707 C-48.200870513916016,-7.34263801574707 -76.22087097167969,-7.5246381759643555 -76.22087097167969,-7.5246381759643555"/></g><g opacity="1" transform="matrix(1,0,0,1,0,0)"><path stroke-linecap="round" stroke-linejoin="round" fill-opacity="0" class="primary" stroke="rgb(18,19,49)" stroke-opacity="1" stroke-width="7" d=" M-68.97683715820312,-3.642312526702881 C-68.97683715820312,-7.991666793823242 -102.9859390258789,-11.51729679107666 -144.93893432617188,-11.51729679107666 C-186.89199829101562,-11.517000198364258 -220.9010009765625,-7.992000102996826 -220.90199279785156,-3.6419999599456787"/></g></g><g transform="matrix(0.7071067690849304,-0.7071067690849304,0.7071067690849304,0.7071067690849304,211.443603515625,204.69808959960938)" opacity="1" style="display: block;"><g opacity="1" transform="matrix(1,0,0,1,0,0)"><path stroke-linecap="round" stroke-linejoin="round" fill-opacity="0" class="primary" stroke="rgb(18,19,49)" stroke-opacity="1" stroke-width="7" d=" M-35.37099838256836,25.871999740600586 C-35.37099838256836,25.871999740600586 112.8010025024414,25.569000244140625 112.8010025024414,25.569000244140625 C112.8010025024414,25.569000244140625 112.8010025024414,54.604000091552734 112.8010025024414,54.604000091552734 C112.8010025024414,54.604000091552734 144.2169952392578,54.604000091552734 144.2169952392578,54.604000091552734 C144.2169952392578,54.604000091552734 144.2169952392578,36.5629997253418 144.2169952392578,36.5629997253418 C144.2169952392578,36.5629997253418 175.63400268554688,36.5629997253418 175.63400268554688,36.5629997253418 C175.63400268554688,36.5629997253418 175.63400268554688,54.604000091552734 175.63400268554688,54.604000091552734 C175.63400268554688,54.604000091552734 207.05099487304688,54.604000091552734 207.05099487304688,54.604000091552734 C207.05099487304688,54.604000091552734 207.05099487304688,25.569000244140625 207.05099487304688,25.569000244140625 C207.05099487304688,25.569000244140625 220.02099609375,25.496999740600586 220.02099609375,25.496999740600586 C226.156005859375,25.496999740600586 231.1280059814453,20.52400016784668 231.1280059814453,14.388999938964844 C231.1280059814453,14.388999938964844 231.1280059814453,-0.17499999701976776 231.1280059814453,-0.17499999701976776 C231.1280059814453,-6.309999942779541 226.156005859375,-11.282999992370605 220.02099609375,-11.282999992370605 C220.02099609375,-11.282999992370605 -35.37099838256836,-10.907999992370605 -35.37099838256836,-10.907999992370605"/></g></g><g transform="matrix(0.7071067690849304,-0.7071067690849304,0.7071067690849304,0.7071067690849304,211.443603515625,204.69808959960938)" opacity="1" style="display: block;"><g opacity="1" transform="matrix(1,0,0,1,0,0)"><path stroke-linecap="round" stroke-linejoin="round" fill-opacity="0" class="primary" stroke="rgb(18,19,49)" stroke-opacity="1" stroke-width="7" d=" M-68.90599822998047,7.218999862670898 C-68.90599822998047,7.218999862670898 -68.90599822998047,7.218999862670898 -68.90599822998047,7.218999862670898 M-220.875,7.375 C-220.875,7.375 -220.875,7.25 -220.875,7.25 M-69.00199890136719,7.142000198364258 C-69.00199890136719,-34.59199905395508 -103.01200103759766,-68.42500305175781 -144.96499633789062,-68.42500305175781 C-186.91799926757812,-68.42500305175781 -220.927001953125,-34.59199905395508 -220.927001953125,7.142000198364258 C-220.927001953125,48.875999450683594 -186.91799926757812,82.70800018310547 -144.96499633789062,82.70800018310547 C-103.01200103759766,82.70800018310547 -69.00199890136719,48.875999450683594 -69.00199890136719,7.142000198364258z M-99.72200012207031,7.142000198364258 C-99.72200012207031,-17.71500015258789 -119.97799682617188,-37.8650016784668 -144.96499633789062,-37.8650016784668 C-169.95199584960938,-37.8650016784668 -190.20799255371094,-17.71500015258789 -190.20799255371094,7.142000198364258 C-190.20799255371094,31.999000549316406 -169.95199584960938,52.14799880981445 -144.96499633789062,52.14799880981445 C-119.97799682617188,52.14799880981445 -99.72200012207031,31.999000549316406 -99.72200012207031,7.142000198364258z M-69.00199890136719,7.142000198364258 C-69.00199890136719,-34.59199905395508 -103.01200103759766,-68.42500305175781 -144.96499633789062,-68.42500305175781 C-186.91799926757812,-68.42500305175781 -220.927001953125,-34.59199905395508 -220.927001953125,7.142000198364258 C-220.927001953125,48.875999450683594 -186.91799926757812,82.70800018310547 -144.96499633789062,82.70800018310547 C-103.01200103759766,82.70800018310547 -69.00199890136719,48.875999450683594 -69.00199890136719,7.142000198364258z M-99.72200012207031,7.142000198364258 C-99.72200012207031,-17.71500015258789 -119.97799682617188,-37.8650016784668 -144.96499633789062,-37.8650016784668 C-169.95199584960938,-37.8650016784668 -190.20799255371094,-17.71500015258789 -190.20799255371094,7.142000198364258 C-190.20799255371094,31.999000549316406 -169.95199584960938,52.14799880981445 -144.96499633789062,52.14799880981445 C-119.97799682617188,52.14799880981445 -99.72200012207031,31.999000549316406 -99.72200012207031,7.142000198364258z M-75.927001953125,44.553001403808594 C-75.927001953125,44.553001403808594 -47.90700149536133,44.736000061035156 -47.90700149536133,44.736000061035156 C-40.98400115966797,44.736000061035156 -35.37099838256836,39.12200164794922 -35.37099838256836,32.19900131225586 C-35.37099838256836,32.19900131225586 -35.37099838256836,32.19900131225586 -35.37099838256836,32.19900131225586 C-35.37099838256836,32.19900131225586 -35.37099838256836,-17.236000061035156 -35.37099838256836,-17.236000061035156 C-35.37099838256836,-17.236000061035156 -35.37099838256836,-17.236000061035156 -35.37099838256836,-17.236000061035156 C-35.37099838256836,-24.159000396728516 -40.98400115966797,-29.77199935913086 -47.90700149536133,-29.77199935913086 C-47.90700149536133,-29.77199935913086 -75.927001953125,-29.95400047302246 -75.927001953125,-29.95400047302246"/></g></g><g transform="matrix(0.7071067690849304,-0.7071067690849304,-0.7071067690849304,-0.7071067690849304,221.54391479492188,216.44540405273438)" opacity="1" style="display: none;"><g opacity="1" transform="matrix(1,0,0,1,0,0)"><path stroke-linecap="round" stroke-linejoin="round" fill-opacity="0" class="primary" stroke="rgb(18,19,49)" stroke-opacity="1" stroke-width="7" d=" M-37.61519241333008,20.990934371948242 C-37.61519241333008,20.990934371948242 112.92889404296875,20.50108528137207 112.92889404296875,20.50108528137207 C112.92889404296875,20.50108528137207 112.92889404296875,20.5274715423584 112.92889404296875,20.5274715423584 C112.92889404296875,20.5274715423584 144.3459014892578,20.5274715423584 144.3459014892578,20.5274715423584 C144.3459014892578,20.5274715423584 144.3459014892578,20.510940551757812 144.3459014892578,20.510940551757812 C144.3459014892578,20.510940551757812 175.7628936767578,20.510940551757812 175.7628936767578,20.510940551757812 C175.7628936767578,20.510940551757812 175.7628936767578,20.5274715423584 175.7628936767578,20.5274715423584 C175.7628936767578,20.5274715423584 207.17889404296875,20.5274715423584 207.17889404296875,20.5274715423584 C207.17889404296875,20.5274715423584 207.17889404296875,20.50108528137207 207.17889404296875,20.50108528137207 C207.17889404296875,20.50108528137207 220.14990234375,20.501028060913086 220.14990234375,20.501028060913086 C226.28489685058594,20.501028060913086 231.1320037841797,16.5272216796875 231.1320037841797,10.39222240447998 C231.1320037841797,10.39222240447998 231.25689697265625,6.319764137268066 231.25689697265625,6.319764137268066 C231.25689697265625,0.18476422131061554 226.2838897705078,-4.788235664367676 220.14990234375,-4.788235664367676 C220.14990234375,-4.788235664367676 -37.61519241333008,-4.298328399658203 -37.61519241333008,-4.298328399658203"/></g></g><g transform="matrix(0.7071067690849304,-0.7071067690849304,-0.7071067690849304,-0.7071067690849304,221.54391479492188,216.44540405273438)" opacity="1" style="display: none;"><g opacity="1" transform="matrix(1,0,0,1,0,0)"><path stroke-linecap="round" stroke-linejoin="round" fill-opacity="0" class="primary" stroke="rgb(18,19,49)" stroke-opacity="1" stroke-width="7" d=" M-68.90599822998047,-4.86525821685791 C-68.90599822998047,-4.86525821685791 -68.90599822998047,19.989704132080078 -68.90599822998047,19.989704132080078 M-220.875,-4.865132808685303 C-220.875,-4.865132808685303 -220.875,19.989728927612305 -220.875,19.989728927612305 M-99.94581604003906,-4.951251029968262 C-99.94581604003906,-4.906325817108154 -120.20182037353516,-4.869599342346191 -145.18881225585938,-4.869599342346191 C-170.1758270263672,-4.869599342346191 -190.43182373046875,-4.906325817108154 -190.43182373046875,-4.951251029968262 C-190.43182373046875,-4.996176242828369 -170.1758270263672,-5.03290319442749 -145.18881225585938,-5.03290319442749 C-120.20182037353516,-5.03290319442749 -99.94581604003906,-4.996176242828369 -99.94581604003906,-4.951251029968262z M-76.0509033203125,20.072734832763672 C-76.0509033203125,20.072734832763672 -48.02989959716797,20.255735397338867 -48.02989959716797,20.255735397338867 C-41.10689926147461,20.255735397338867 -35.493900299072266,14.641735076904297 -35.493900299072266,7.7187347412109375 C-35.493900299072266,7.7187347412109375 -35.493900299072266,7.7187347412109375 -35.493900299072266,7.7187347412109375 C-35.493900299072266,7.7187347412109375 -35.69773483276367,7.7018961906433105 -35.69773483276367,7.7018961906433105 C-35.69773483276367,7.7018961906433105 -35.69773483276367,7.7018961906433105 -35.69773483276367,7.7018961906433105 C-35.69773483276367,0.7788962125778198 -41.31073760986328,-4.834103584289551 -48.23373794555664,-4.834103584289551 C-48.23373794555664,-4.834103584289551 -76.25373840332031,-5.016103744506836 -76.25373840332031,-5.016103744506836"/></g><g opacity="1" transform="matrix(1,0,0,1,0,0)"><path stroke-linecap="round" stroke-linejoin="round" fill-opacity="0" class="primary" stroke="rgb(18,19,49)" stroke-opacity="1" stroke-width="7" d=" M-68.9740219116211,-4.848333835601807 C-68.9740219116211,-4.772039413452148 -102.98302459716797,-4.711362838745117 -144.93601989746094,-4.711362838745117 C-186.88902282714844,-4.711362838745117 -220.89901733398438,-4.772039413452148 -220.89901733398438,-4.848333835601807 C-220.89901733398438,-4.924628257751465 -186.88902282714844,-4.986304759979248 -144.93601989746094,-4.986304759979248 C-102.98302459716797,-4.986304759979248 -68.9740219116211,-4.924628257751465 -68.9740219116211,-4.848333835601807z"/></g><g opacity="1" transform="matrix(1,0,0,1,0,0)"><path stroke-linecap="round" stroke-linejoin="round" fill-opacity="0" class="primary" stroke="rgb(18,19,49)" stroke-opacity="1" stroke-width="7" d=" M-68.87310028076172,20.131528854370117 C-68.87310028076172,20.055234909057617 -102.8821029663086,19.99355697631836 -144.83509826660156,19.99355697631836 C-186.78799438476562,19.993999481201172 -220.79800415039062,20.05500030517578 -220.79800415039062,20.131999969482422"/></g></g></g></g></svg>